<svg xmlns="http://www.w3.org/2000/svg"><symbol id="si-center" viewBox="0 0 511.63 511.631"><path d="M511.63 401.994v36.546c0 4.948-1.811 9.232-5.425 12.854-3.617 3.61-7.905 5.421-12.85 5.421H18.274c-4.947 0-9.23-1.811-12.851-5.421C1.809 447.772 0 443.488 0 438.54v-36.546c0-4.948 1.809-9.232 5.424-12.847 3.618-3.617 7.898-5.427 12.851-5.427h475.082c4.944 0 9.232 1.81 12.85 5.427 3.613 3.615 5.423 7.899 5.423 12.847zM127.91 274.088c-4.952 0-9.233 1.811-12.85 5.428-3.618 3.613-5.424 7.901-5.424 12.847v36.545c0 4.948 1.807 9.236 5.424 12.847 3.62 3.617 7.901 5.432 12.85 5.432h255.813c4.948 0 9.233-1.814 12.847-5.432 3.617-3.61 5.428-7.898 5.428-12.847v-36.545c0-4.945-1.811-9.233-5.428-12.847-3.613-3.617-7.898-5.428-12.847-5.428H127.91zm-73.089-36.54H456.81c4.949 0 9.233-1.812 12.848-5.429 3.613-3.612 5.42-7.898 5.42-12.845v-36.547c0-4.952-1.807-9.231-5.42-12.847-3.614-3.617-7.898-5.424-12.848-5.424H54.821c-4.952 0-9.235 1.807-12.85 5.424-3.617 3.615-5.424 7.898-5.424 12.847v36.547c0 4.947 1.807 9.233 5.424 12.845 3.619 3.617 7.898 5.429 12.85 5.429zm109.636-109.639h182.714c4.948 0 9.236-1.809 12.854-5.424 3.613-3.617 5.424-7.898 5.424-12.847V73.091c0-4.948-1.811-9.229-5.417-12.85-3.62-3.612-7.905-5.424-12.854-5.424H164.457c-4.952 0-9.235 1.812-12.85 5.424-3.617 3.617-5.426 7.902-5.426 12.85v36.547c0 4.948 1.809 9.229 5.426 12.847 3.619 3.615 7.901 5.424 12.85 5.424z"/></symbol><symbol id="si-justify" viewBox="0 0 511.63 511.631"><path d="M493.356 274.088H18.274c-4.952 0-9.233 1.811-12.851 5.428C1.809 283.129 0 287.417 0 292.362v36.545c0 4.948 1.809 9.236 5.424 12.847 3.621 3.617 7.904 5.432 12.851 5.432h475.082c4.944 0 9.232-1.814 12.85-5.432 3.614-3.61 5.425-7.898 5.425-12.847v-36.545c0-4.945-1.811-9.233-5.425-12.847-3.619-3.62-7.907-5.427-12.851-5.427zM493.356 383.721H18.274c-4.952 0-9.233 1.81-12.851 5.427C1.809 392.762 0 397.046 0 401.994v36.546c0 4.948 1.809 9.232 5.424 12.854 3.621 3.61 7.904 5.421 12.851 5.421h475.082c4.944 0 9.232-1.811 12.85-5.421 3.614-3.621 5.425-7.905 5.425-12.854v-36.546c0-4.948-1.811-9.232-5.425-12.847-3.619-3.617-7.907-5.426-12.851-5.426zM506.206 60.241c-3.617-3.612-7.905-5.424-12.85-5.424H18.274c-4.952 0-9.233 1.812-12.851 5.424C1.809 63.858 0 68.143 0 73.091v36.547c0 4.948 1.809 9.229 5.424 12.847 3.621 3.616 7.904 5.424 12.851 5.424h475.082c4.944 0 9.232-1.809 12.85-5.424 3.614-3.617 5.425-7.898 5.425-12.847V73.091c-.002-4.948-1.812-9.23-5.426-12.85zM493.356 164.456H18.274c-4.952 0-9.233 1.807-12.851 5.424C1.809 173.495 0 177.778 0 182.727v36.547c0 4.947 1.809 9.233 5.424 12.845 3.621 3.617 7.904 5.429 12.851 5.429h475.082c4.944 0 9.232-1.812 12.85-5.429 3.614-3.612 5.425-7.898 5.425-12.845v-36.547c0-4.952-1.811-9.231-5.425-12.847-3.619-3.617-7.907-5.424-12.851-5.424z"/></symbol><symbol id="si-left" viewBox="0 0 511.63 511.631"><path d="M18.274 237.548h438.542c4.949 0 9.229-1.812 12.847-5.429 3.614-3.612 5.421-7.898 5.421-12.845v-36.547c0-4.952-1.807-9.231-5.421-12.847-3.617-3.617-7.897-5.424-12.847-5.424H18.274c-4.952 0-9.233 1.807-12.851 5.424C1.809 173.495 0 177.778 0 182.727v36.547c0 4.947 1.809 9.233 5.424 12.845 3.62 3.617 7.902 5.429 12.85 5.429zM18.274 127.909h328.897c4.948 0 9.236-1.809 12.854-5.424 3.613-3.617 5.424-7.898 5.424-12.847V73.091c0-4.948-1.811-9.229-5.424-12.85-3.617-3.612-7.905-5.424-12.854-5.424H18.274c-4.952 0-9.233 1.812-12.851 5.424C1.809 63.858 0 68.143 0 73.091v36.547c0 4.948 1.809 9.229 5.424 12.847 3.62 3.615 7.902 5.424 12.85 5.424zM506.206 389.147c-3.617-3.617-7.905-5.427-12.85-5.427H18.274c-4.952 0-9.233 1.81-12.851 5.427C1.809 392.762 0 397.046 0 401.994v36.546c0 4.948 1.809 9.232 5.424 12.854 3.621 3.61 7.904 5.421 12.851 5.421h475.082c4.944 0 9.232-1.811 12.85-5.421 3.614-3.621 5.425-7.905 5.425-12.854v-36.546c-.002-4.948-1.812-9.232-5.426-12.847zM18.274 347.179h365.449c4.948 0 9.233-1.811 12.847-5.428 3.617-3.614 5.428-7.898 5.428-12.847v-36.542c0-4.945-1.811-9.233-5.428-12.847-3.613-3.617-7.898-5.428-12.847-5.428H18.274c-4.952 0-9.233 1.811-12.851 5.428C1.809 283.129 0 287.417 0 292.362v36.545c0 4.948 1.809 9.236 5.424 12.847 3.62 3.617 7.902 5.425 12.85 5.425z"/></symbol><symbol id="si-right" viewBox="0 0 511.63 511.631"><path d="M493.356 383.721H18.274c-4.952 0-9.233 1.81-12.851 5.427C1.809 392.762 0 397.046 0 401.994v36.546c0 4.948 1.809 9.232 5.424 12.854 3.621 3.61 7.904 5.421 12.851 5.421h475.082c4.944 0 9.232-1.811 12.85-5.421 3.614-3.621 5.425-7.905 5.425-12.854v-36.546c0-4.948-1.811-9.232-5.425-12.847-3.619-3.617-7.907-5.426-12.851-5.426zM493.356 274.088H127.91c-4.952 0-9.233 1.811-12.85 5.428-3.618 3.613-5.424 7.901-5.424 12.847v36.545c0 4.948 1.807 9.236 5.424 12.847 3.62 3.617 7.901 5.432 12.85 5.432h365.446c4.944 0 9.232-1.814 12.85-5.432 3.614-3.61 5.425-7.898 5.425-12.847v-36.545c0-4.945-1.811-9.233-5.425-12.847-3.618-3.621-7.906-5.428-12.85-5.428zM493.356 164.456H54.821c-4.952 0-9.235 1.807-12.85 5.424-3.617 3.615-5.424 7.898-5.424 12.847v36.547c0 4.947 1.807 9.233 5.424 12.845 3.619 3.617 7.898 5.429 12.85 5.429h438.535c4.944 0 9.232-1.812 12.85-5.429 3.614-3.612 5.425-7.898 5.425-12.845v-36.547c0-4.952-1.811-9.231-5.425-12.847-3.618-3.617-7.906-5.424-12.85-5.424zM506.206 60.241c-3.617-3.612-7.905-5.424-12.85-5.424H164.457c-4.952 0-9.235 1.812-12.85 5.424-3.617 3.617-5.426 7.902-5.426 12.85v36.547c0 4.948 1.809 9.229 5.426 12.847 3.619 3.616 7.901 5.424 12.85 5.424h328.899c4.944 0 9.232-1.809 12.85-5.424 3.614-3.617 5.425-7.898 5.425-12.847V73.091c-.001-4.948-1.811-9.23-5.425-12.85z"/></symbol></svg>